<?xml version="1.0" standalone="no"?><!DOCTYPE svg PUBLIC "-//W3C//DTD SVG 1.1//EN" "http://www.w3.org/Graphics/SVG/1.1/DTD/svg11.dtd"><svg t="1564021762337" class="icon" viewBox="0 0 1024 1024" version="1.1" xmlns="http://www.w3.org/2000/svg" p-id="8272" xmlns:xlink="http://www.w3.org/1999/xlink" width="200" height="200"><defs><style type="text/css"></style></defs><path d="M453.568 64H83.456A19.52 19.52 0 0 0 64 83.456v370.112c0 10.688 8.768 19.456 19.456 19.456h370.112a19.52 19.52 0 0 0 19.456-19.456V83.456A19.52 19.52 0 0 0 453.568 64z m-63.36 326.272H146.816V146.752h243.52v243.52zM940.608 64H570.432a19.52 19.52 0 0 0-19.456 19.456v370.112c0 10.688 8.768 19.456 19.456 19.456h370.112A19.52 19.52 0 0 0 960 453.568V83.456A19.52 19.52 0 0 0 940.544 64z m-63.36 326.272H633.792V146.752h243.52v243.52z m-423.616 160.64H83.456A19.52 19.52 0 0 0 64 570.496v370.112c0 10.688 8.768 19.456 19.456 19.456h370.112a19.52 19.52 0 0 0 19.456-19.456V570.432a19.52 19.52 0 0 0-19.456-19.456z m-63.36 326.336H146.816V633.728h243.52v243.52z" p-id="8273" fill="#ffffff"></path><path d="M975.168 792a44.992 44.992 0 0 1 14.08 50.816l-0.64 1.472c-9.6 25.28-23.744 48.576-42.24 69.184l-0.64 0.704a47.04 47.04 0 0 1-49.984 13.12l-21.44-7.168a192.384 192.384 0 0 1-22.208 12.16l-3.84 19.52a46.08 46.08 0 0 1-37.504 36.48l-1.344 0.192a246.208 246.208 0 0 1-82.944 0l-1.152-0.192a46.08 46.08 0 0 1-37.632-36.48l-3.84-19.712a192.384 192.384 0 0 1-21.888-12.096l-21.824 7.36a47.04 47.04 0 0 1-49.664-12.928L589.44 913.408a220.928 220.928 0 0 1-42.24-69.504l-0.32-0.832a45.248 45.248 0 0 1 14.016-51.2l16.384-13.248a179.52 179.52 0 0 1 0-21.248l-16.512-13.312a45.184 45.184 0 0 1-14.08-50.88l0.64-1.472c9.6-25.28 23.744-48.576 42.24-69.248l0.64-0.64A47.04 47.04 0 0 1 640.256 608.64l21.76 7.296c6.976-4.48 14.272-8.512 21.76-12.032l3.904-19.712a46.08 46.08 0 0 1 37.568-36.48l1.344-0.256a248.064 248.064 0 0 1 82.944 0l1.152 0.256a46.08 46.08 0 0 1 37.632 36.416l3.84 19.52c7.616 3.584 15.04 7.68 22.144 12.224l21.568-7.296a47.04 47.04 0 0 1 49.664 12.992l0.96 1.024c18.368 20.48 32.576 43.776 42.24 69.504l0.32 0.768a45.248 45.248 0 0 1-14.016 51.264l-16 12.928a176.64 176.64 0 0 1 0 21.952l16.128 12.992z m-84.608 13.888l3.2-18.56a114.112 114.112 0 0 0 0-38.656l-3.2-18.496 14.592-11.776 18.88-15.296a155.648 155.648 0 0 0-18.752-30.08l-42.24 14.144-13.504-10.496a129.92 129.92 0 0 0-36.288-19.84l-17.152-6.144-3.52-17.92-4.608-23.68a185.024 185.024 0 0 0-39.936 0l-8.192 41.728-17.088 6.144a129.664 129.664 0 0 0-35.968 19.776l-13.568 10.56-16.256-5.504-26.24-8.832a156.8 156.8 0 0 0-18.752 30.08l33.92 27.392-3.264 18.56a110.976 110.976 0 0 0 0 37.952l3.2 18.56-14.656 11.84-19.2 15.552c5.12 10.688 11.328 20.736 18.752 30.08l42.496-14.272 13.568 10.56c10.88 8.448 22.976 15.104 35.84 19.712l17.28 6.144 3.456 17.92 4.672 23.872a182.72 182.72 0 0 0 39.936 0l8.128-41.6 17.152-6.144c13.248-4.736 25.408-11.328 36.224-19.84l13.568-10.56 16.32 5.504 25.92 8.704a156.8 156.8 0 0 0 18.688-30.08l-33.408-27.008z" p-id="8274" fill="#ffffff"></path><path d="M768 768m-82.304 0a82.304 82.304 0 1 0 164.608 0 82.304 82.304 0 1 0-164.608 0Z" p-id="8275" fill="#ffffff"></path></svg>